<?xml version="1.0" encoding="utf-8"?>
<!-- Generator: Adobe Illustrator 17.1.0, SVG Export Plug-In . SVG Version: 6.00 Build 0)  -->
<!DOCTYPE svg PUBLIC "-//W3C//DTD SVG 1.1//EN" "http://www.w3.org/Graphics/SVG/1.1/DTD/svg11.dtd">
<svg version="1.1" id="Layer_1" xmlns="http://www.w3.org/2000/svg" xmlns:xlink="http://www.w3.org/1999/xlink" x="0px" y="0px"
	 viewBox="0 0 289.1 62.1" enable-background="new 0 0 289.1 62.1" xml:space="preserve">
<g>
	<path fill="#FFFFFF" d="M221.2,52.8c0.2-1.2,1.3-2.2,2.5-2.2h1.5c0.9,0,1.8,0.1,2.7,0.5c1.1,0.6,1.5,1.9,1.3,3.2
		c-0.2,1.2-0.8,2.3-1.9,3c-0.9,0.5-2,0.6-3.1,0.6h-1.5l-0.6,4.1h-2.2L221.2,52.8z M222.9,55.9h1.7c1.1,0,2.2-0.4,2.4-1.7
		c0.2-1.5-0.6-1.7-2-1.7h-1.3c-0.3,0-0.3,0.3-0.4,0.5L222.9,55.9z"/>
	<path fill="#FFFFFF" d="M232.4,51.4c0.3-0.6,1-1,1.6-1c0.7,0,1.3,0.4,1.4,1l2.5,10.5h-2.2l-0.6-2.6h-4.5l-1.4,2.6H227L232.4,51.4z
		 M231.6,57.4h3.1l-0.9-4.3L231.6,57.4z"/>
	<path fill="#FFFFFF" d="M248.3,51l-0.3,2.1h-0.3c-0.7-0.4-1.8-0.7-2.6-0.7c-1,0-1.9,0.3-2.6,1.1c-0.7,0.7-1.1,1.9-1.2,2.8
		c-0.1,1-0.1,2.1,0.5,2.8c0.5,0.7,1.4,1,2.3,1c0.9,0,2-0.3,2.8-0.7h0.3l-0.3,2.1c-1.1,0.4-2,0.6-3.1,0.6c-1.4,0-2.8-0.5-3.6-1.5
		c-1.1-1.2-1.4-2.8-1.1-4.5c0.2-1.4,0.9-2.9,2-4.1c1.2-1.2,2.7-1.6,4.3-1.6C246.5,50.4,247.3,50.6,248.3,51z"/>
	<path fill="#FFFFFF" d="M250.8,61.9h-2.2l1.6-11.4h2.2L250.8,61.9z"/>
	<path fill="#FFFFFF" d="M257.7,50.6h5.7l-0.3,2h-5.2c-0.3,0-0.6,0.2-0.6,0.5l-0.3,2h4.2l-0.3,2h-4.2l-0.7,5h-2.2l1.3-9.2
		C255.3,51.6,256.5,50.6,257.7,50.6z"/>
	<path fill="#FFFFFF" d="M265.2,61.9h-2.2l1.6-11.4h2.2L265.2,61.9z"/>
	<path fill="#FFFFFF" d="M277.6,51l-0.3,2.1h-0.3c-0.7-0.4-1.8-0.7-2.6-0.7c-1,0-1.9,0.3-2.6,1.1c-0.7,0.7-1.1,1.9-1.2,2.8
		c-0.1,1-0.1,2.1,0.5,2.8c0.5,0.7,1.4,1,2.3,1c0.9,0,2-0.3,2.8-0.7h0.3l-0.3,2.1c-1.1,0.4-2,0.6-3.1,0.6c-1.4,0-2.8-0.5-3.6-1.5
		c-1.1-1.2-1.4-2.8-1.1-4.5c0.2-1.4,0.9-2.9,2-4.1c1.2-1.2,2.7-1.6,4.3-1.6C275.8,50.4,276.7,50.6,277.6,51z"/>
</g>
<g>
	<path fill="#FFFFFF" d="M69.3,19.2c0.5-3.4,3.6-6.1,7-6.1h4.2c2.6,0.1,5.1,0.2,7.5,1.4c3.1,1.6,4.1,5.2,3.6,8.8
		c-0.5,3.3-2.1,6.5-5.4,8.3c-2.6,1.5-5.6,1.7-8.5,1.7h-4.3l-1.6,11.4h-6.1L69.3,19.2z M74.1,27.8h4.6c3,0,6-1.2,6.5-4.7
		c0.6-4.1-1.6-4.7-5.5-4.7h-3.6c-0.8,0-0.9,0.7-1,1.5L74.1,27.8z"/>
	<path fill="#FFFFFF" d="M104.6,42.4c-1.9,1.8-4.4,2.7-6.7,2.7c-4.7,0-7.7-3.2-7.2-7.8c0.5-4.3,4.2-7.2,7.9-7.7l7.9-1.1
		c0.1-2.3-3.4-3.1-5-3.1c-2,0-4.5,0.5-6.4,1.4h-0.6l0.7-5.2c2.3-0.6,4.7-1.2,7.2-1.2c5.4,0,10.4,2,9.7,8l-2.3,16.1h-5.5L104.6,42.4z
		 M99.6,40.1c1.8,0,3.7-0.7,5.3-1.6l0.7-5.3c-2,0.4-4,0.5-6,1c-1.6,0.3-2.9,1.2-3.2,3C96.1,39.3,97.7,40.1,99.6,40.1z"/>
	<path fill="#FFFFFF" d="M134,27.2c-1.3-1.2-3.9-1.6-6-1.6c-2.2,0-3.7,0.8-4.8,2c-1.2,1.4-1.8,3.2-2.1,5.3c-0.2,1.6-0.1,3.1,0.4,4.3
		c0.7,1.7,2.1,2.9,4.4,2.9c2.1,0,4.7-0.4,6.5-1.3h0.7l-0.7,4.9c-2.6,1.2-5,1.6-7.3,1.6c-3.9,0-7.1-2.3-8.7-5.2
		c-1.1-2-1.5-4.6-1.1-7.4c0.4-3.5,2-6.5,4.2-8.7c2.3-2.3,5.4-3.3,8.9-3.3c2.6,0,4.7,0.6,7,1.6l-0.7,5.1H134z"/>
	<path fill="#FFFFFF" d="M159,44.6h-6.7l-6.5-11.1l-2.2,1.7l-1.4,9.5h-5.7l4.6-33h5.7l-2.3,16.7l9.1-7.3h8.4l-11.7,9L159,44.6
		L159,44.6z"/>
	<path fill="#FFFFFF" d="M166,37.2c-0.3,2,1,2.8,2.7,2.8c1.2,0,2.4-0.5,3.6-1h0.7l-0.7,5c-1.8,0.6-3.2,1-5,1c-5.6,0-7.7-3.2-6.9-8.8
		l3.5-24.7h5.7L166,37.2z"/>
	<path fill="#FFFFFF" d="M186.4,40.2c2,0,4.4-0.4,6.4-1.5h0.7l-0.8,5.4c-2.7,0.8-4.9,1-7.5,1c-3.3,0-6.7-1.1-8.9-3.4
		c-1.8-1.9-2.7-5.2-2.5-7.8c0.3-4,1.3-6.9,3.9-9.7c2.2-2.5,5.5-3.7,8.9-3.7c4.3,0,7.6,2.2,8.7,6.2c0.8,2.9,0.4,5.5-0.1,8.4h-15.5
		C180,38.8,183.2,40.3,186.4,40.2z M180.6,30.3h9.6c0.2-3-1.1-4.8-4-4.9C183.3,25.4,181.3,27.6,180.6,30.3z"/>
	<path fill="#FFFFFF" d="M212.4,42.4c-1.9,1.8-4.4,2.7-6.7,2.7c-4.7,0-7.7-3.2-7.2-7.8c0.5-4.3,4.2-7.2,7.9-7.7l7.9-1.1
		c0.1-2.3-3.4-3.1-5-3.1c-2,0-4.6,0.5-6.4,1.4h-0.6l0.7-5.2c2.3-0.6,4.7-1.2,7.2-1.2c5.4,0,10.4,2,9.7,8l-2.2,16.1h-5.5L212.4,42.4z
		 M207.4,40.1c1.8,0,3.7-0.7,5.3-1.6l0.7-5.3c-2,0.4-4,0.5-6,1c-1.6,0.3-2.9,1.2-3.2,3C203.9,39.3,205.5,40.1,207.4,40.1z"/>
	<path fill="#FFFFFF" d="M233.1,45.1c-4.1-0.1-7.4-1.8-9-5.4c-1-2.3-1.1-5-0.7-7.6c0.5-3,1.4-5.9,3.7-8.3c2.3-2.3,5.5-3.3,8.8-3.3
		c1.6,0,3,0.2,4.4,1.2l1.4-10.1h5.7l-3.9,27.8c-0.5,3.2-3.3,5.7-6.5,5.7H233.1z M239.5,26.2c-1.3-0.3-2.5-0.6-3.9-0.6
		c-1.8,0.1-3.4,0.6-4.6,2.2c-1,1.3-1.5,3.1-1.7,4.7c-0.3,1.9-0.5,4.6,0.8,6.1c1,1.2,2.8,1.4,4.3,1.4h1.9c0.7,0,1.4-0.6,1.5-1.3
		L239.5,26.2z"/>
	<path fill="#FFFFFF" d="M260.8,40.2c2,0,4.4-0.4,6.4-1.5h0.7l-0.8,5.4c-2.7,0.8-4.9,1-7.5,1c-3.3,0-6.7-1.1-8.9-3.4
		c-1.9-1.9-2.7-5.2-2.5-7.8c0.3-4,1.4-6.9,3.9-9.7c2.3-2.5,5.5-3.7,8.9-3.7c4.3,0,7.6,2.2,8.7,6.2c0.8,2.9,0.4,5.5-0.1,8.4h-15.5
		C254.3,38.8,257.5,40.3,260.8,40.2z M254.9,30.3h9.6c0.2-3-1.1-4.8-4-4.9C257.6,25.4,255.6,27.6,254.9,30.3z"/>
	<path fill="#FFFFFF" d="M288.3,25.9h-0.8c-1.8-0.8-5,0-6.9,1.2l-2.5,17.5h-5.7l3.3-23.6h5.5l-0.2,1.5c2.6-1.2,5.2-2,8-2L288.3,25.9
		z"/>
</g>
<g>
	<path fill="#FFFFFF" d="M46.2,5.5c0,0-11.4-4.1-14-4.9c-2.6-0.7-5.8-1.2-9.1,0.8l-9.4,5.8L36.5,15c12.5,3.6,7.8,9.7,6.4,10.6
		c-0.7,0.5-3.2,2-7.2,4.7l-0.3,0.2c-4.4,2.7-4.1,6.4-4,7.1l0.3,12.1c0,0,7.2,2.5,7.7,2.5c0,0,4.2-1.8,4.2-6.1l-0.3-13.9l9.1-6.2
		l0.3-0.5C56.6,12,50.2,7.2,46.2,5.5z"/>
	<path fill="#FFFFFF" d="M22.3,47.9c-7.8-2.7-9.4-8.2-9.2-13.6l0-26.8L9.5,9.6c-9.6,6.6-8.6,13.8-8.6,14.2L1,37.6
		c0,15.6,10.5,19.4,12.1,20c0,0,9.3,3.3,9.3,3.3c1,0.3,1.9,0.3,2.7,0.3c1.4,0,2.2-0.4,2.7-0.7l11-7L22.3,47.9z"/>
</g>
</svg>
